<?xml version="1.0" standalone="no"?>
<!DOCTYPE svg PUBLIC "-//W3C//DTD SVG 20010904//EN"
 "http://www.w3.org/TR/2001/REC-SVG-20010904/DTD/svg10.dtd">
<svg version="1.0" xmlns="http://www.w3.org/2000/svg"
 width="962.000000pt" height="980.000000pt" viewBox="0 0 962.000000 980.000000"
 preserveAspectRatio="xMidYMid meet">
<metadata>
Created by potrace 1.15, written by Peter Selinger 2001-2017
</metadata>
<g transform="translate(0.000000,980.000000) scale(0.100000,-0.100000)"
fill="#3853d8" stroke="none">
<path d="M8845 9783 c-120 -43 -139 -60 -848 -763 -255 -253 -257 -255 -282
-240 -13 8 -76 50 -140 93 -1226 831 -2811 1049 -4230 582 -748 -246 -1387
-644 -1946 -1212 -666 -677 -1108 -1508 -1293 -2433 -62 -308 -86 -539 -93
-892 l-6 -288 815 0 815 0 -5 138 c-5 146 10 384 33 544 157 1054 800 1942
1753 2423 344 173 693 276 1117 327 166 20 552 14 740 -11 347 -47 669 -140
979 -285 93 -43 264 -136 294 -160 11 -7 -93 -115 -452 -470 -332 -329 -477
-479 -505 -524 -137 -218 -85 -420 137 -525 l67 -32 1640 -3 c1272 -2 1650 0
1685 10 56 15 124 81 140 135 8 27 10 497 8 1688 l-3 1650 -27 57 c-75 161
-246 243 -393 191z"/>
<path d="M7984 4937 c-1 -249 -16 -396 -60 -617 -127 -635 -428 -1196 -889
-1655 -348 -347 -786 -618 -1250 -773 -213 -71 -426 -119 -660 -148 -206 -25
-570 -23 -777 5 -442 59 -833 189 -1203 399 -44 25 -82 47 -85 49 -2 2 208
214 467 471 488 484 518 517 557 636 20 59 22 147 6 203 -26 86 -113 169 -230
219 -44 18 -95 19 -1680 22 -1198 2 -1646 0 -1676 -9 -54 -14 -109 -60 -137
-112 l-22 -42 -3 -1595 c-1 -951 1 -1622 7 -1662 18 -133 93 -243 200 -295 46
-23 69 -28 131 -28 63 0 85 5 140 31 81 38 97 53 630 575 l435 425 156 -105
c1137 -768 2577 -1020 3904 -681 360 92 607 182 933 340 486 237 883 516 1269
893 654 639 1104 1425 1323 2309 88 360 129 682 137 1086 l6 292 -814 0 -814
0 -1 -233z"/>
</g>
</svg>
